<svg
    version="1.0"
    xmlns="http://www.w3.org/2000/svg"
    xmlns:xlink="http://www.w3.org/1999/xlink"
    width="512"
    height="512"
    viewBox="0 0 512 512"
  >
    <svg id="global-svg-defs" version="1.0" xmlns="http://www.w3.org/2000/svg" width="0" height="0" viewBox="0 0 340.000000 250.000000" preserveAspectRatio="xMidYMid meet" color-interpolation-filters="sRGB" class="el-tooltip" style="margin: auto;" xmlns:xlink="http://www.w3.org/1999/xlink">
    <defs>
      <pattern id="watermark" patternUnits="userSpaceOnUse" width="100%" height="100%">
        <image xlink:href="https://www.logosc.cn/img/watermark/LOGOSC-watermark.png" x="0" y="0" width="100%" height="100%">
        </image>
      </pattern>
                    <linearGradient id="92" x1="0%" y1="0%" x2="100%" y2="0%">
          <stop offset="0%" stop-color="#fa71cd"></stop>
          <stop offset="100%" stop-color="#9b59b6"></stop>
        </linearGradient>
              <linearGradient id="93" x1="0%" y1="0%" x2="100%" y2="0%">
          <stop offset="0%" stop-color="#f9d423"></stop>
          <stop offset="100%" stop-color="#f83600"></stop>
        </linearGradient>
              <linearGradient id="94" x1="0%" y1="0%" x2="100%" y2="0%">
          <stop offset="0%" stop-color="#0064d2"></stop>
          <stop offset="100%" stop-color="#1cb0f6"></stop>
        </linearGradient>
              <linearGradient id="95" x1="0%" y1="0%" x2="100%" y2="0%">
          <stop offset="0%" stop-color="#f00978"></stop>
          <stop offset="100%" stop-color="#3f51b1"></stop>
        </linearGradient>
              <linearGradient id="96" x1="0%" y1="0%" x2="100%" y2="0%">
          <stop offset="0%" stop-color="#7873f5"></stop>
          <stop offset="100%" stop-color="#ec77ab"></stop>
        </linearGradient>
              <linearGradient id="97" x1="0%" y1="0%" x2="100%" y2="0%">
          <stop offset="0%" stop-color="#f9d423"></stop>
          <stop offset="100%" stop-color="#e14fad"></stop>
        </linearGradient>
              <linearGradient id="98" x1="0%" y1="0%" x2="100%" y2="0%">
          <stop offset="0%" stop-color="#009efd"></stop>
          <stop offset="100%" stop-color="#2af598"></stop>
        </linearGradient>
              <linearGradient id="99" x1="0%" y1="0%" x2="100%" y2="0%">
          <stop offset="0%" stop-color="#ffcc00"></stop>
          <stop offset="100%" stop-color="#00b140"></stop>
        </linearGradient>
              <linearGradient id="100" x1="0%" y1="0%" x2="100%" y2="0%">
          <stop offset="0%" stop-color="#d51007"></stop>
          <stop offset="100%" stop-color="#ff8177"></stop>
        </linearGradient>
              <linearGradient id="102" x1="0%" y1="0%" x2="100%" y2="0%">
          <stop offset="0%" stop-color="#a2b6df"></stop>
          <stop offset="100%" stop-color="#0c3483"></stop>
        </linearGradient>
              <linearGradient id="103" x1="0%" y1="0%" x2="100%" y2="0%">
          <stop offset="0%" stop-color="#7ac5d8"></stop>
          <stop offset="100%" stop-color="#eea2a2"></stop>
        </linearGradient>
              <linearGradient id="104" x1="0%" y1="0%" x2="100%" y2="0%">
          <stop offset="0%" stop-color="#00ecbc"></stop>
          <stop offset="100%" stop-color="#007adf"></stop>
        </linearGradient>
              <linearGradient id="105" x1="0%" y1="0%" x2="100%" y2="0%">
          <stop offset="0%" stop-color="#b88746"></stop>
          <stop offset="100%" stop-color="#fdf5a6"></stop>
        </linearGradient>
              <linearGradient id="107" x1="0%" y1="0%" x2="100%" y2="0%">
          <stop offset="0%" stop-color="#ffbf00"></stop>
          <stop offset="100%" stop-color="#26b5f8"></stop>
        </linearGradient>
          </defs>
  </svg>
    <rect
      x="0"
      y="0"
      width="100%"
      height="100%"
      fill="transparent"
      fill-opacity="1"
    ></rect>
    <svg data-v-0dd9719b="" version="1.0" xmlns="http://www.w3.org/2000/svg" xmlns:xlink="http://www.w3.org/1999/xlink" width="100%" height="100%" viewBox="0 0 100 100" preserveAspectRatio="xMidYMid meet" color-interpolation-filters="sRGB" style="margin: auto;"> <rect data-v-0dd9719b="" x="0" y="0" width="100%" height="100%" fill="#ffffff" fill-opacity="1" class="background" style="display: none;"/> <rect data-v-0dd9719b="" x="0" y="0" width="100%" height="100%" fill="url(#watermark)" fill-opacity="1" class="watermarklayer" style="display: none;"/> <g data-v-0dd9719b="" fill="#333" class="iconsvg-imagesvg"><rect fill="#333" fill-opacity="0" stroke-width="2" x="0" y="0" width="100" height="100" class="image-rect"/> <svg viewBox="0 0 60 60" x="0" y="0" width="100" height="100" class="image-svg-svg bn" style="overflow: visible;"><g hollow-target=""><g><svg viewBox="0 0 100 100" xmlns="http://www.w3.org/2000/svg" style="overflow: visible;" width="60" height="60" x="0" y="0" filtersec="colorsb8813679414" filter="url(#S3Gx_c_3HkNigYRCTSxTE)"><g transform="scale(1, 1) skewX(0)"><path d="M50 0c27.614 0 50 22.386 50 50v50H50C22.386 100 0 77.614 0 50S22.386 0 50 0zm.777 3.006L50 3C24.043 3 3 24.043 3 50c0 25.698 20.624 46.579 46.223 46.994L50 97h47V50C97 24.56 76.787 3.84 51.544 3.025l-.767-.019z" fill="#333" fill-rule="nonzero"/></g><defs><filter id="S3Gx_c_3HkNigYRCTSxTE"><feColorMatrix type="matrix" values="0 0 0 0 0.19921875  0 0 0 0 0.19921875  0 0 0 0 0.19921875  0 0 0 1 0"/></filter></defs></svg></g> <g filter="url(#colors2252940565)"><svg xmlns="http://www.w3.org/2000/svg" xmlns:xlink="http://www.w3.org/1999/xlink" viewBox="0 0 65.52000000000001 65.59200000000001" width="45" height="45" x="7.5" y="7.5" class="image-svg-letter"><path transform="translate(-3.24 54.43200000000001)" d="M15.48-32.98Q12.96-29.66 9.65-27.32Q6.34-24.98 3.24-23.90L3.24-23.90L3.24-30.82Q12.38-36.00 13.39-45.07L13.39-45.07L3.24-45.07L3.24-50.98L15.48-50.98L15.48-54.43L22.39-54.43L22.39-50.98L34.85-50.98L34.85-45.07L22.39-45.07L22.39-43.34L23.83-43.34L35.14-25.27L28.22-25.27L22.39-34.56L22.39-25.13L15.48-25.13L15.48-32.98ZM68.76-50.98L68.76-45.07L58.54-45.07Q58.90-41.83 60.34-39.31Q61.78-36.79 63.68-34.99Q65.59-33.19 68.76-30.82L68.76-30.82L68.76-23.90Q64.66-25.99 61.31-28.44Q57.96-30.89 55.58-34.20L55.58-34.20L55.58-25.13L48.67-25.13L48.67-33.55Q46.01-30.17 42.62-27.94Q39.24-25.70 36.00-24.62L36.00-24.62L36.00-31.54Q40.25-34.20 43.13-37.30Q46.01-40.39 46.58-45.07L46.58-45.07L37.15-45.07L37.15-50.98L48.67-50.98L48.67-54.43L55.58-54.43L55.58-50.98L68.76-50.98ZM4.54-14.98L4.54-20.88L67.54-20.88L67.54-14.98L4.54-14.98ZM68.76-10.51L68.76-8.42Q68.76-6.55 67.43-5.58Q66.10-4.61 64.37-4.61L64.37-4.61L39.46-4.61L39.46 6.26Q39.46 9.07 38.34 10.12Q37.22 11.16 35.86 11.16L35.86 11.16L32.54 11.16L32.54-2.88Q32.54-3.60 32.08-4.10Q31.61-4.61 30.89-4.61L30.89-4.61L3.24-4.61L3.24-10.51L68.76-10.51ZM6.26 10.30L13.03-3.17L19.94-3.17L13.18 10.30L6.26 10.30ZM52.06-3.17L58.97-3.17L65.74 10.30L58.82 10.30L52.06-3.17Z"/></svg></g></g></svg> <defs><filter id="colors2252940565"><feColorMatrix type="matrix" values="0 0 0 0 0.19921875  0 0 0 0 0.19921875  0 0 0 0 0.19921875  0 0 0 1 0" class="icon-fecolormatrix"/></filter> <filter id="colorsf7402852942"><feColorMatrix type="matrix" values="0 0 0 0 0.99609375  0 0 0 0 0.99609375  0 0 0 0 0.99609375  0 0 0 1 0" class="icon-fecolormatrix"/></filter> <filter id="colorsb8813679414"><feColorMatrix type="matrix" values="0 0 0 0 0  0 0 0 0 0  0 0 0 0 0  0 0 0 1 0" class="icon-fecolormatrix"/></filter></defs></g><defs v-gra="od"/></svg>
  </svg>